<?xml version="1.0" standalone="no"?>
<!DOCTYPE svg PUBLIC "-//W3C//DTD SVG 20010904//EN"
 "http://www.w3.org/TR/2001/REC-SVG-20010904/DTD/svg10.dtd">
<svg version="1.0" xmlns="http://www.w3.org/2000/svg"
 width="216.000000pt" height="233.000000pt" viewBox="0 0 216.000000 233.000000"
 preserveAspectRatio="xMidYMid meet">

<g transform="translate(0.000000,233.000000) scale(0.100000,-0.100000)"
fill="#000000" stroke="none">
<path d="M810 1897 c-106 -45 -101 -39 -79 -103 26 -72 14 -118 -41 -168 -34
-30 -47 -36 -85 -36 -25 0 -62 7 -81 15 -20 8 -40 13 -44 10 -10 -6 -80 -173
-80 -191 0 -7 19 -22 43 -32 66 -30 90 -63 94 -130 5 -73 -18 -112 -87 -147
-27 -14 -50 -31 -50 -37 0 -7 17 -52 37 -101 40 -98 31 -93 124 -67 43 13 50
12 95 -11 39 -19 54 -34 73 -73 l25 -49 -20 -58 c-12 -32 -18 -62 -15 -67 6
-10 175 -82 192 -82 5 0 17 17 25 38 60 144 228 144 289 -1 8 -20 20 -37 26
-37 18 0 184 72 190 82 4 6 1 26 -7 44 -36 86 -6 171 74 206 42 19 51 20 92 8
92 -26 83 -31 123 67 21 48 37 95 37 103 0 8 -23 25 -50 37 -61 27 -90 69 -90
134 0 61 31 107 93 138 26 13 47 29 47 37 0 19 -60 166 -75 182 -9 10 -19 9
-50 -4 -26 -11 -56 -15 -89 -11 -42 4 -55 10 -88 45 -46 50 -53 104 -22 177
10 26 11 35 1 42 -19 14 -165 73 -181 73 -8 0 -26 -21 -39 -47 -30 -62 -76
-93 -136 -93 -62 0 -104 28 -136 90 -16 32 -32 50 -43 50 -9 -1 -51 -15 -92
-33z m417 -343 c29 -14 74 -49 102 -80 197 -215 41 -554 -254 -554 -215 0
-374 202 -321 408 8 34 26 79 40 100 89 141 285 199 433 126z"/>
<path d="M0 85 l0 -85 1080 0 1080 0 0 85 0 85 -1080 0 -1080 0 0 -85z m218
13 c14 5 15 4 2 -10 -9 -10 -17 -12 -21 -6 -4 6 -9 5 -12 -3 -3 -8 -6 -3 -6
11 -1 18 2 21 10 13 6 -6 19 -9 27 -5z m78 3 c-19 -7 -19 -8 2 -13 14 -4 22
-1 25 11 3 9 5 3 6 -13 0 -16 -2 -26 -6 -23 -3 4 -12 2 -20 -5 -11 -8 -17 -8
-26 2 -9 9 -9 11 0 6 6 -3 14 -2 17 3 3 5 -1 11 -9 15 -23 8 -18 26 8 25 20 0
21 -1 3 -8z m143 -7 c4 3 7 -3 7 -13 0 -10 -6 -18 -13 -18 -8 0 -13 11 -12 26
0 14 3 20 6 13 2 -6 8 -10 12 -8z m-41 -5 c-9 -6 -8 -12 3 -25 13 -16 12 -16
-8 -6 -14 8 -24 9 -28 2 -9 -15 -25 -2 -25 20 0 14 7 18 35 17 19 -1 29 -4 23
-8z m1323 -13 c5 3 9 0 9 -6 0 -15 -23 -7 -26 8 -1 7 0 8 3 2 2 -5 9 -8 14 -4z
m253 -1 c-3 -6 -11 -12 -18 -12 -8 0 -12 6 -10 12 3 6 11 12 18 12 8 0 12 -6
10 -12z m23 -7 c-3 -8 -6 -5 -6 6 -1 11 2 17 5 13 3 -3 4 -12 1 -19z m38 -7
c-6 -5 -25 10 -25 20 0 5 6 4 14 -3 8 -7 12 -15 11 -17z m63 9 c3 -12 2 -12
-6 -2 -11 17 -22 17 -32 2 -5 -8 -9 -8 -13 3 -4 10 2 13 21 12 14 0 27 -7 30
-15z m-1974 -6 c3 -8 2 -12 -4 -9 -6 3 -10 10 -10 16 0 14 7 11 14 -7z m126
12 c0 -2 -8 -10 -17 -17 -16 -13 -17 -12 -4 4 13 16 21 21 21 13z m1340 -6 c0
-5 -2 -10 -4 -10 -3 0 -8 5 -11 10 -3 6 -1 10 4 10 6 0 11 -4 11 -10z m100 -2
c0 -4 -4 -8 -9 -8 -6 0 -12 4 -15 8 -3 5 1 9 9 9 8 0 15 -4 15 -9z m80 2 c0
-5 -5 -10 -11 -10 -5 0 -7 5 -4 10 3 6 8 10 11 10 2 0 4 -4 4 -10z m25 0 c3
-5 1 -10 -4 -10 -6 0 -11 5 -11 10 0 6 2 10 4 10 3 0 8 -4 11 -10z m85 0 c-20
-13 -33 -13 -25 0 3 6 14 10 23 10 15 0 15 -2 2 -10z"/>
<path d="M350 74 c0 -8 5 -12 10 -9 6 3 10 10 10 16 0 5 -4 9 -10 9 -5 0 -10
-7 -10 -16z"/>
</g>
</svg>
